<svg width="24" height="24" viewBox="0 0 24 24" fill="none"><g clip-path="url(#clip0_985_1374)"><path d="M12 0C5.37224 0 0 5.37155 0 12C0 18.6284 5.37224 24 12 24C18.6278 24 24 18.6284 24 12C24 5.37155 18.6284 0 12 0Z" fill="#2C1338"></path><path d="M12 18.5C8.60838 18.5 5.5 15.6957 5.5 12.3027C5.5 9.47108 7.5 7 10 6.5V8.25C8.34478 8.89874 7.25 10.4198 7.25 12.3027C7.25 14.7594 9.5 16.75 12 16.75C14.5 16.75 16.75 14.7594 16.75 12.3027C16.75 10.4191 15.6532 8.89874 14 8.25V6.5C16.5 7 18.5 9.47108 18.5 12.302C18.5007 15.695 15.393 18.5 12 18.5ZM11 4H13V13H11V4ZM12 0C5.37224 0 0 5.37155 0 12C0 18.6284 5.37224 24 12 24C18.6278 24 24 18.6284 24 12C24 5.37155 18.6284 0 12 0Z" fill="#E57CD8"></path></g><defs><clipPath id="clip0_985_1374"><rect width="24" height="24" fill="white"></rect></clipPath></defs></svg>
