<svg width="147" height="147" viewBox="0 0 147 147"><path fill="#F7E7DC" d="M73.5 147c40.593 0 73.5-32.907 73.5-73.5S114.093 0 73.5 0 0 32.907 0 73.5 32.907 147 73.5 147z"></path><path fill="#7E7284" d="M104.288 34.627H42.679a8.003 8.003 0 00-8.003 8.003v51.482a8.003 8.003 0 008.003 8.004h61.609a8.003 8.003 0 008.004-8.004V42.63a8.003 8.003 0 00-8.004-8.004z"></path><path fill="#2C1338" d="M106.518 40.915H40.441v54.92h66.077v-54.92z"></path><path fill="#fff" d="M94.25 50.25H98.75V54.75H94.25z"></path><path fill="#D164C5" d="M96.5 56.996c.615 0 1.195-.117 1.739-.352a4.575 4.575 0 002.409-2.406 4.326 4.326 0 00.352-1.74c0-.615-.117-1.194-.352-1.736a4.605 4.605 0 00-2.41-2.408A4.334 4.334 0 0096.497 48c-.616 0-1.195.118-1.737.354a4.612 4.612 0 00-2.407 2.408A4.325 4.325 0 0092 52.498c0 .618.117 1.198.352 1.74a4.58 4.58 0 002.41 2.406 4.346 4.346 0 001.738.352zm-.854-2.713a.323.323 0 01-.31.028.237.237 0 01-.152-.235v-3.152c0-.112.053-.19.158-.233a.326.326 0 01.304.021l2.619 1.54a.274.274 0 01.14.248.283.283 0 01-.14.257l-2.62 1.526z"></path><rect width="43" height="9" x="44" y="48" fill="#7E6E85" opacity="0.5" rx="4.5"></rect><path fill="#54465E" d="M73.484 39.42a1.413 1.413 0 100-2.825 1.413 1.413 0 000 2.825z"></path><path fill="#E6B26E" d="M48.608 80.907l3.495 17.967a3.864 3.864 0 007.652-.956l-.62-13.123-10.527-3.888zM38.922 83.3l4.002 15.892a3.649 3.649 0 005.06 2.43 3.653 3.653 0 001.986-2.288 3.66 3.66 0 00.116-1.546l-2.14-15.206-9.024.718zM37.068 84.035l3.471 13.067a3.871 3.871 0 01-3.74 4.9 3.882 3.882 0 01-3.667-2.613L27.26 82.288l8.935-1.037.873 2.784zM25.472 82.067l4.361 11.931a3.42 3.42 0 01-2.344 4.476 3.422 3.422 0 01-3.944-1.821l-7.032-14.586h8.959z"></path><path fill="#FFDE91" d="M27.922 65.333a32.528 32.528 0 0114.381 3.316l21.079 10.396a5.273 5.273 0 012.335 7.179 5.268 5.268 0 01-6.664 2.45l-7.774-3.185a9.481 9.481 0 00-5.015-.613l-3.708.547a35.698 35.698 0 01-9.873.074 35.934 35.934 0 00-9.359 0l-2.45.318a9.424 9.424 0 01-10.38-7.252 9.424 9.424 0 015.415-10.78 29.947 29.947 0 0112.013-2.45z"></path><path fill="#2C1338" d="M123.888 101.969H23.112a2.663 2.663 0 00-1.879 4.516l4.557 4.688a3.937 3.937 0 002.793 1.2h89.833a3.945 3.945 0 002.826-1.2l4.557-4.688a2.665 2.665 0 00-.44-4.073 2.663 2.663 0 00-1.471-.443z"></path><path fill="#E6B26E" d="M98.392 80.907l-3.495 17.967a3.864 3.864 0 01-7.652-.956l.62-13.123 10.527-3.888zM108.078 83.3l-4.002 15.892a3.647 3.647 0 01-3.544 2.761 3.665 3.665 0 01-2.757-1.26 3.652 3.652 0 01-.86-2.905l2.139-15.206 9.024.718zM109.931 84.035l-3.47 13.067a3.86 3.86 0 00.654 3.378 3.88 3.88 0 006.753-1.091l5.872-17.101-8.935-1.037-.874 2.784zM121.528 82.067l-4.361 11.931a3.422 3.422 0 002.344 4.476 3.42 3.42 0 003.944-1.821l7.032-14.586h-8.959z"></path><path fill="#FFDE91" d="M119.078 65.333a32.524 32.524 0 00-14.381 3.357L83.619 79.045a5.275 5.275 0 00-2.336 7.179 5.268 5.268 0 006.664 2.45l7.775-3.185a9.482 9.482 0 015.014-.613l3.708.547c3.271.482 6.594.507 9.873.074a35.934 35.934 0 019.359 0l2.45.318a9.425 9.425 0 0010.396-7.235 9.42 9.42 0 00-5.431-10.797 29.942 29.942 0 00-12.013-2.45z"></path></svg>
